<svg width="20" height="20" viewBox="0 0 20 20" fill="none" xmlns="http://www.w3.org/2000/svg">
<path d="M13.125 17.5L8.74942 14.375L4.375 17.5V5.625C4.375 5.45924 4.44085 5.30027 4.55806 5.18306C4.67527 5.06585 4.83424 5 5 5H12.5C12.6658 5 12.8247 5.06585 12.9419 5.18306C13.0592 5.30027 13.125 5.45924 13.125 5.625V17.5Z" stroke="#284F9A" stroke-width="1.5" stroke-linecap="round" stroke-linejoin="round"/>
<path d="M6.875 5V3.125C6.875 2.95924 6.94085 2.80027 7.05806 2.68306C7.17527 2.56585 7.33424 2.5 7.5 2.5H15C15.1658 2.5 15.3247 2.56585 15.4419 2.68306C15.5592 2.80027 15.625 2.95924 15.625 3.125V15L13.125 13.2145" stroke="#284F9A" stroke-width="1.5" stroke-linecap="round" stroke-linejoin="round"/>
</svg>
