<svg width="20" height="20" viewBox="0 0 20 20" fill="none" xmlns="http://www.w3.org/2000/svg">
<path d="M11.7495 16.5304V12.7803C11.7495 12.6145 11.6837 12.4556 11.5665 12.3384C11.4493 12.2211 11.2903 12.1553 11.1245 12.1553H8.62454C8.45878 12.1553 8.29981 12.2211 8.1826 12.3384C8.06539 12.4556 7.99954 12.6145 7.99954 12.7803V16.5304C7.99954 16.6961 7.9337 16.8551 7.81651 16.9723C7.69932 17.0895 7.54037 17.1554 7.37462 17.1554L3.62508 17.1559C3.543 17.1559 3.46171 17.1397 3.38588 17.1083C3.31004 17.0769 3.24113 17.0309 3.18309 16.9728C3.12504 16.9148 3.079 16.8459 3.04758 16.7701C3.01617 16.6942 3 16.613 3 16.5309V9.3074C3 9.22033 3.01819 9.13422 3.05342 9.05458C3.08864 8.97495 3.14011 8.90356 3.20454 8.84498L9.45411 3.16257C9.56915 3.05797 9.71906 3.00001 9.87455 3C10.03 2.99999 10.1799 3.05795 10.295 3.16255L16.5454 8.84498C16.6099 8.90355 16.6613 8.97495 16.6966 9.05459C16.7318 9.13423 16.75 9.22035 16.75 9.30743V16.5309C16.75 16.613 16.7338 16.6942 16.7024 16.7701C16.671 16.8459 16.625 16.9148 16.5669 16.9728C16.5089 17.0309 16.44 17.0769 16.3641 17.1083C16.2883 17.1397 16.207 17.1559 16.1249 17.1559L12.3745 17.1554C12.2087 17.1554 12.0498 17.0895 11.9326 16.9723C11.8154 16.8551 11.7495 16.6961 11.7495 16.5304V16.5304Z" stroke="#fff" stroke-width="1.5" stroke-linecap="round" stroke-linejoin="round"/>
</svg>
